HIERARCHY
ROOT Hips
{
	OFFSET 0.000000 0.000000 0.000000 
	CHANNELS 6 Xposition Yposition Zposition Yrotation Zrotation Xrotation 
	JOINT Lumbar
	{
		OFFSET 0.000000 0.000000 0.000000 
		CHANNELS 3 Zrotation Xrotation Yrotation
		JOINT Neck
		{
			OFFSET 0.000000 0.445665 0.000000 
			CHANNELS 3 Zrotation Xrotation Yrotation
			End Site
			{
				OFFSET 0.000000 0.227535 0.000000 
			}
		}
		JOINT RightShoulder
		{
			OFFSET 0.019635 0.377685 0.194865 
			CHANNELS 3 Zrotation Xrotation Yrotation
			JOINT RightElbow
			{
				OFFSET 0.000000 -0.243375 0.000000 
				CHANNELS 2 Zrotation Yrotation
				JOINT RightWrist
				{
					OFFSET 0.000000 -0.264825 0.000000 
					CHANNELS 2 Zrotation Xrotation
					End Site
					{
						OFFSET 0.006600 -0.176220 0.000990 
					}
				}
			}
		}
		JOINT LeftShoulder
		{
			OFFSET 0.019635 0.377685 -0.194865 
			CHANNELS 3 Zrotation Xrotation Yrotation
			JOINT LeftElbow
			{
				OFFSET 0.000000 -0.243375 0.000000 
				CHANNELS 2 Zrotation Yrotation
				JOINT LeftWrist
				{
					OFFSET 0.000000 -0.264825 0.000000 
					CHANNELS 2 Zrotation Xrotation
					End Site
					{
						OFFSET 0.006600 -0.176220 -0.000990 
					}
				}
			}
		}
	}
	JOINT RightHip
	{
		OFFSET 0.052140 -0.069960 0.075570 
		CHANNELS 3 Zrotation Xrotation Yrotation
		JOINT RightKnee
		{
			OFFSET 0.000000 -0.402270 0.000000 
			CHANNELS 1 Zrotation
			JOINT RightAnkle
			{
				OFFSET 0.000000 -0.404085 0.000000 
				CHANNELS 3 Zrotation Xrotation Yrotation
				End Site
				{
					OFFSET 0.204105 -0.089430 0.008415 
				}
			}
		}
	}
	JOINT LeftHip
	{
		OFFSET 0.052140 -0.069960 -0.075570 
		CHANNELS 3 Zrotation Xrotation Yrotation
		JOINT LeftKnee
		{
			OFFSET 0.000000 -0.402270 0.000000 
			CHANNELS 1 Zrotation
			JOINT LeftAnkle
			{
				OFFSET 0.000000 -0.404085 0.000000 
				CHANNELS 3 Zrotation Xrotation Yrotation
				End Site
				{
					OFFSET 0.204105 -0.089430 -0.008415 
				}
			}
		}
	}
}
MOTION
Frames: 27
Frame Time: 0.02
0.00216 -0.00107 -0.00092 -167.9602 -26.57078 -8.02631 39.76501 5.86704 -5.25214 -16.60596 3.0785 -0.44587 -25.29627 -21.61647 -19.4062 131.4247 46.31108 -17.82242 4.15874 -12.29676 13.71826 28.89145 135.59481 -25.63015 -25.87492 -6.86409 32.16116 8.64331 -18.60401 -22.01117 22.51194 5.48235 3.1035 46.02802 22.03608 -13.17826 -32.0761 -8.60124 3.65618 2.64536
0.00197 -0.00105 -0.00113 -167.91205 -26.52489 -8.02373 39.78772 5.79532 -5.47132 -16.27934 2.82932 -0.44674 -24.69364 -19.77677 -19.03076 131.37846 48.23423 -18.05169 3.69212 -12.67435 13.22786 27.03017 135.48716 -27.76702 -25.35271 -6.51242 32.10182 8.64127 -18.68673 -22.00154 19.65478 4.77241 2.64463 45.91213 21.98013 -13.46218 -32.04212 -8.62062 3.69208 2.66797
0.00178 -0.00103 -0.00133 -167.86423 -26.4792 -8.02118 39.81039 5.72382 -5.69003 -15.95334 2.58085 -0.4476 -24.09353 -17.94374 -18.65623 131.33184 50.14994 -18.28074 3.22716 -13.05225 12.73872 25.17479 135.37948 -29.89708 -24.83243 -6.16179 32.04271 8.63922 -18.76922 -21.99196 16.8064 4.06464 2.18718 45.79662 21.92443 -13.7451 -32.00829 -8.63994 3.72787 2.6905
0.0016 -0.00101 -0.00154 -167.81626 -26.43346 -8.01861 39.83304 5.65231 -5.90857 -15.62765 2.33243 -0.44847 -23.49287 -16.10985 -18.28188 131.28564 52.06678 -18.5094 2.76204 -13.42896 12.2498 23.31925 135.27209 -32.02741 -24.31186 -5.81118 31.98356 8.63718 -18.8517 -21.98236 13.95804 3.35688 1.72972 45.68109 21.86866 -14.02813 -31.97443 -8.65926 3.76366 2.71303
0.00141 -0.00099 -0.00174 -167.76787 -26.38751 -8.01599 39.85571 5.58059 -6.12749 -15.30151 2.08334 -0.44934 -22.88942 -14.269 -17.90682 131.24009 53.99201 -18.73805 2.2951 -13.80471 11.75969 21.45783 135.16494 -34.16442 -23.78932 -5.45957 31.92414 8.63516 -18.9344 -21.97272 11.10091 2.64697 1.27085 45.56515 21.81264 -14.31221 -31.94038 -8.67864 3.79957 2.73564
0.00122 -0.00098 -0.00194 -167.72126 -26.34236 -8.01358 39.87839 5.50956 -6.34574 -14.97588 1.8362 -0.4502 -22.29635 -12.45253 -17.53347 131.19127 55.88781 -18.96788 1.83429 -14.18703 11.27263 19.6153 135.05619 -36.27963 -23.27383 -5.11106 31.86571 8.63307 -19.01642 -21.96325 8.27109 1.94374 0.81642 45.45057 21.7576 -14.59267 -31.90702 -8.69781 3.8351 2.758
0.00104 -0.00096 -0.00215 -167.67116 -26.29565 -8.01074 39.90102 5.43721 -6.5651 -14.64948 1.58538 -0.45107 -21.68313 -10.58893 -17.15688 131.14888 57.83959 -19.19522 1.36187 -14.55601 10.78006 17.73669 134.9506 -38.43681 -22.74459 -4.75663 31.80535 8.6311 -19.09974 -21.95346 5.38959 1.22786 0.35357 45.33339 21.70065 -14.8801 -31.87233 -8.71739 3.87134 2.78083
0.00085 -0.00094 -0.00235 -167.6242 -26.25037 -8.00832 39.92372 5.36607 -6.78345 -14.32396 1.33798 -0.45194 -21.08836 -8.76892 -16.78363 131.10093 59.74184 -19.42462 0.89977 -14.9367 10.29238 15.89152 134.84242 -40.55447 -22.22827 -4.40778 31.74675 8.62904 -19.18184 -21.94393 2.55544 0.52359 -0.10156 45.2186 21.64546 -15.1611 -31.83884 -8.7366 3.90693 2.80323
0.00067 -0.00093 -0.00255 -167.58139 -26.20688 -8.00636 39.94642 5.29644 -7.00064 -13.99864 1.09457 -0.4528 -20.51655 -7.00109 -16.41286 131.04459 61.57578 -19.65766 0.45166 -15.33448 9.81117 14.08584 134.72967 -42.62793 -21.72665 -4.06511 31.69038 8.62678 -19.26256 -21.93485 -0.22078 -0.16656 -0.54725 45.1067 21.59239 -15.43436 -31.80691 -8.75533 3.94175 2.82513
0.00047 -0.0009 -0.00278 -167.51563 -26.15322 -8.00159 39.96886 5.21818 -7.22475 -13.66952 0.82761 -0.45369 -19.81384 -4.92971 -16.02302 131.03176 63.77942 -19.87314 -0.07283 -15.64236 9.2942 12.04873 134.639 -44.96812 -21.13715 -3.68493 31.62143 8.6254 -19.35154 -21.92359 -3.33022 -0.93821 -1.04728 44.97807 21.52703 -15.75252 -31.76631 -8.77673 3.98107 2.84997
0.0003 -0.0009 -0.00294 -167.49772 -26.12092 -8.00284 39.99202 5.15812 -7.43406 -13.3502 0.61075 -0.45451 -19.38648 -3.50091 -15.67651 130.93022 65.21803 -20.12343 -0.43878 -16.13433 8.85182 10.50269 134.5045 -46.7375 -20.73519 -3.3852 31.57887 8.62234 -19.4229 -21.91667 -5.73646 -1.53765 -1.4326 44.88484 21.48766 -15.9757 -31.74377 -8.79254 4.01083 2.86857
0.00022 -0.00102 -0.00294 -167.6171 -26.14846 -8.02 40.0159 5.14859 -7.60397 -13.04366 0.52923 -0.45513 -19.72813 -3.83272 -15.42525 130.55726 64.40645 -20.49011 -0.3429 -17.18135 8.62442 10.29448 134.22522 -46.99248 -20.83523 -3.29741 31.6105 8.61308 -19.44722 -21.92409 -6.19597 -1.66216 -1.50052 44.88889 21.51972 -15.93807 -31.77309 -8.79244 4.01479 2.87019
0.00018 -0.00117 -0.00288 -167.78332 -26.19719 -8.04327 40.0408 5.15722 -7.75871 -12.74986 0.49839 -0.45568 -20.3432 -4.80861 -15.22236 130.10042 62.84973 -20.88882 -0.092 -18.40298 8.47101 10.58137 133.9062 -46.66533 -21.12582 -3.29195 31.6683 8.6024 -19.45367 -21.93547 -5.95235 -1.6142 -1.45372 44.92846 21.57778 -15.80536 -31.82006 -8.78683 4.00909 2.86552
0.00012 -0.0013 -0.00284 -167.92437 -26.23544 -8.06421 40.06596 5.15719 -7.91973 -12.45912 0.4458 -0.45626 -20.82508 -5.4936 -15.0122 129.70026 61.7388 -21.25802 0.06945 -19.51347 8.27576 10.64771 133.62171 -46.56983 -21.33758 -3.2547 31.71297 8.59346 -19.46739 -21.94341 -6.04192 -1.64673 -1.46112 44.95172 21.62402 -15.71597 -31.85751 -8.78412 4.00751 2.8636
5e-05 -0.00146 -0.0028 -168.08238 -26.27739 -8.08347 40.08781 5.15896 -8.08372 -12.12991 0.388 -0.45685 -21.34755 -6.17906 -14.7381 129.22157 60.19422 -21.6865 0.30815 -20.76274 8.11122 10.69532 133.26869 -46.60938 -21.51739 -3.19428 31.76289 8.58001 -19.48444 -21.95815 -6.0733 -1.66999 -1.45962 44.97583 21.67071 -15.6249 -31.90153 -8.77973 4.00696 2.86206
2e-05 -0.00156 -0.00276 -168.21556 -26.31656 -8.10745 40.11713 5.16122 -8.23743 -11.88529 0.35292 -0.45741 -21.84735 -7.00768 -14.61107 128.88653 59.35087 -22.00403 0.42681 -21.75904 7.9054 10.90047 133.04761 -46.23303 -21.80837 -3.20114 31.80811 8.57547 -19.49059 -21.95987 -6.05814 -1.67168 -1.44939 45.00649 21.72213 -15.51609 -31.9358 -8.77753 4.00208 2.8583
8e-05 -0.00147 -0.00273 -168.27369 -26.34348 -8.1448 40.16384 5.16102 -8.37043 -11.8587 0.36949 -0.45791 -22.24222 -8.14526 -14.85756 128.96969 60.85053 -21.9645 0.13954 -22.05808 7.52344 11.40868 133.21295 -44.82446 -22.36374 -3.37725 31.83336 8.59729 -19.46881 -21.92292 -6.09818 -1.65651 -1.44425 45.04731 21.78437 -15.37034 -31.94088 -8.78257 3.98683 2.84944
0.00018 -0.00131 -0.0027 -168.30419 -26.3667 -8.18633 40.21851 5.16056 -8.49272 -11.91901 0.40699 -0.4584 -22.60042 -9.3915 -15.25436 129.20031 63.04267 -21.81991 -0.26757 -22.08795 7.1057 12.06083 133.51032 -43.02317 -23.02363 -3.61736 31.85303 8.62789 -19.43707 -21.87309 -6.11365 -1.62552 -1.4341 45.09335 21.84972 -15.21195 -31.93519 -8.79001 3.96768 2.83865
0.00028 -0.00118 -0.00267 -168.34414 -26.39122 -8.22475 40.27161 5.15982 -8.61749 -11.94781 0.43394 -0.45889 -22.95888 -10.5406 -15.59578 129.36258 64.76743 -21.75188 -0.59534 -22.21252 6.73305 12.65318 133.73891 -41.41826 -23.63292 -3.82595 31.87565 8.65356 -19.41133 -21.8303 -6.13302 -1.60153 -1.42558 45.13646 21.91086 -15.06702 -31.93304 -8.79644 3.95089 2.82911
0.00034 -0.00105 -0.00262 -168.39912 -26.41826 -8.26852 40.31645 5.16143 -8.75238 -11.94379 0.46673 -0.45938 -23.3951 -11.91238 -15.88385 129.52689 67.09962 -21.56448 -1.02085 -22.46103 6.24079 13.23649 134.00244 -39.71478 -24.26185 -4.04831 31.89756 8.68311 -19.3788 -21.78259 -6.15873 -1.57244 -1.41586 45.18311 21.98453 -14.88705 -31.93708 -8.80238 3.93141 2.81784
0.00047 -0.0009 -0.00261 -168.41528 -26.4387 -8.30201 40.37994 5.15779 -8.86311 -12.02806 0.49203 -0.45987 -23.65839 -12.83958 -16.31867 129.72391 68.35474 -21.59887 -1.27561 -22.38368 5.98878 13.86968 134.226 -38.13426 -24.87233 -4.25534 31.91911 8.7067 -19.35824 -21.74209 -6.17428 -1.55229 -1.40888 45.22322 22.03274 -14.77723 -31.92562 -8.80992 3.9166 2.8097
0.00078 -0.00075 -0.0027 -168.33373 -26.44323 -8.30662 40.49663 5.14025 -8.9162 -12.33956 0.48833 -0.46039 -23.44029 -12.4943 -17.11727 129.96835 66.3509 -22.28484 -1.01032 -21.48574 6.40323 14.57497 134.29947 -36.96396 -25.40494 -4.41052 31.94234 8.71172 -19.37336 -21.72401 -6.17362 -1.56289 -1.41176 45.24324 22.00774 -14.87375 -31.87252 -8.82179 3.91689 2.81158
0.00116 -0.00059 -0.00284 -168.2134 -26.44092 -8.30065 40.63116 5.11731 -8.94425 -12.73594 0.47677 -0.46091 -23.05038 -11.69858 -18.05912 130.24224 63.26558 -23.19537 -0.5736 -20.26703 7.06096 15.3288 134.32999 -35.93872 -25.91505 -4.54644 31.96504 8.71047 -19.40084 -21.71376 -6.16604 -1.5835 -1.41796 45.25647 21.95733 -15.04002 -31.80443 -8.83511 3.92185 2.81653
0.00151 -0.00044 -0.00295 -168.10869 -26.44067 -8.29909 40.75512 5.09631 -8.97958 -13.09037 0.47055 -0.46144 -22.7462 -11.11706 -18.93803 130.50761 60.75345 -23.99359 -0.22852 -19.18397 7.61122 16.07769 134.38495 -34.86658 -26.43494 -4.68681 31.98694 8.71201 -19.42277 -21.70032 -6.16134 -1.59891 -1.42253 45.27311 21.9198 -15.16852 -31.74405 -8.84747 3.9239 2.81948
0.00186 -0.00026 -0.00306 -168.01118 -26.44457 -8.29917 40.88968 5.07721 -9.03173 -13.46223 0.45737 -0.46193 -22.40879 -10.4973 -19.81255 130.75783 57.91563 -24.82981 0.17122 -18.12928 8.14902 16.75917 134.42275 -33.69973 -26.95896 -4.84789 32.01292 8.71392 -19.44449 -21.6848 -6.15638 -1.6163 -1.42734 45.28852 21.87662 -15.322 -31.67937 -8.86118 3.92909 2.82488
0.00222 -0.00013 -0.0032 -167.89024 -26.43842 -8.2935 41.00636 5.0532 -9.04317 -13.81661 0.45685 -0.4625 -22.10001 -9.85167 -20.72895 131.04434 55.49596 -25.64366 0.49841 -16.9492 8.76876 17.59127 134.48558 -32.77018 -27.46953 -4.96008 32.03052 8.7137 -19.46919 -21.67572 -6.15081 -1.63229 -1.43255 45.30489 21.83932 -15.44035 -31.6204 -8.87237 3.92895 2.82598
0.00259 -0.00011 -0.00345 -167.7105 -26.4046 -8.27254 41.06891 5.01423 -8.94695 -14.10359 0.49038 -0.4633 -21.91406 -9.21771 -21.71941 131.42633 54.44445 -26.32239 0.59247 -15.44807 9.57453 18.82078 134.61641 -32.46042 -27.92985 -4.94439 32.02357 8.7069 -19.50379 -21.68206 -6.1458 -1.64133 -1.43787 45.32475 21.8228 -15.44382 -31.57943 -8.87637 3.9126 2.81406
